HIERARCHY
ROOT Hips
{
  OFFSET 0.0273292 -0.436096 0.279869
  CHANNELS 6 Xposition Yposition Zposition Zrotation Xrotation Yrotation
  JOINT LHipJoint
  {
    OFFSET 0 0 0
    CHANNELS 6 Xposition Yposition Zposition Zrotation Xrotation Yrotation
    JOINT LeftUpLeg
    {
      OFFSET 1.36306 -1.79463 0
      CHANNELS 6 Xposition Yposition Zposition Zrotation Xrotation Yrotation
      JOINT LeftLeg
      {
        OFFSET 2.44807 -6.72613 0.000295034
        CHANNELS 6 Xposition Yposition Zposition Zrotation Xrotation Yrotation
        JOINT LeftFoot
        {
          OFFSET 2.5622 -7.03959 3.59965e-05
          CHANNELS 6 Xposition Yposition Zposition Zrotation Xrotation Yrotation
          JOINT LeftToeBase
          {
            OFFSET 0.15764 -0.43311 2.32255
            CHANNELS 6 Xposition Yposition Zposition Zrotation Xrotation Yrotation
            End Site
            {
              OFFSET 0 0 0
            }
          }
        }
      }
    }
  }
  JOINT RHipJoint
  {
    OFFSET 0 0 0
    CHANNELS 6 Xposition Yposition Zposition Zrotation Xrotation Yrotation
    JOINT RightUpLeg
    {
      OFFSET -1.30552 -1.79463 0
      CHANNELS 6 Xposition Yposition Zposition Zrotation Xrotation Yrotation
      JOINT RightLeg
      {
        OFFSET -2.54234 -6.98562 -0.000396375
        CHANNELS 6 Xposition Yposition Zposition Zrotation Xrotation Yrotation
        JOINT RightFoot
        {
          OFFSET -2.56826 -7.05623 -4.47982e-05
          CHANNELS 6 Xposition Yposition Zposition Zrotation Xrotation Yrotation
          JOINT RightToeBase
          {
            OFFSET -0.16473 -0.45259 2.36315
            CHANNELS 6 Xposition Yposition Zposition Zrotation Xrotation Yrotation
            End Site
            {
              OFFSET 0 0 0
            }
          }
        }
      }
    }
  }
  JOINT LowerBack
  {
    OFFSET 0 0 0
    CHANNELS 6 Xposition Yposition Zposition Zrotation Xrotation Yrotation
    JOINT Spine
    {
      OFFSET 0.0282699 2.03559 0
      CHANNELS 6 Xposition Yposition Zposition Zrotation Xrotation Yrotation
      JOINT Spine1
      {
        OFFSET 0.05672 2.04885 -0.04275
        CHANNELS 6 Xposition Yposition Zposition Zrotation Xrotation Yrotation
        JOINT Neck
        {
          OFFSET 0 0 0
          CHANNELS 6 Xposition Yposition Zposition Zrotation Xrotation Yrotation
          JOINT Neck1
          {
            OFFSET -0.05417 1.74624 0.17202
            CHANNELS 6 Xposition Yposition Zposition Zrotation Xrotation Yrotation
            JOINT Head
            {
              OFFSET 0.10407 1.76136 -0.12397
              CHANNELS 6 Xposition Yposition Zposition Zrotation Xrotation Yrotation
              End Site
              {
                OFFSET 0 0 0
              }
            }
          }
        }
        JOINT LeftShoulder
        {
          OFFSET 0 0 0
          CHANNELS 6 Xposition Yposition Zposition Zrotation Xrotation Yrotation
          JOINT LeftArm
          {
            OFFSET 3.36241 1.20089 -0.311211
            CHANNELS 6 Xposition Yposition Zposition Zrotation Xrotation Yrotation
            JOINT LeftForeArm
            {
              OFFSET 4.983 0.000197398 0.000166057
              CHANNELS 6 Xposition Yposition Zposition Zrotation Xrotation Yrotation
              JOINT LeftHand
              {
                OFFSET 3.48356 0 1.87849e-05
                CHANNELS 6 Xposition Yposition Zposition Zrotation Xrotation Yrotation
                JOINT LeftFingerBase
                {
                  OFFSET 0 0 0
                  CHANNELS 6 Xposition Yposition Zposition Zrotation Xrotation Yrotation
                  JOINT LeftHandIndex1
                  {
                    OFFSET 0.71526 0 0
                    CHANNELS 6 Xposition Yposition Zposition Zrotation Xrotation Yrotation
                    End Site
                    {
                      OFFSET 0 0 0
                    }
                  }
                }
                JOINT LThumb
                {
                  OFFSET 0 0 0
                  CHANNELS 6 Xposition Yposition Zposition Zrotation Xrotation Yrotation
                  End Site
                  {
                    OFFSET 0 0 0
                  }
                }
              }
            }
          }
        }
        JOINT RightShoulder
        {
          OFFSET 0 0 0
          CHANNELS 6 Xposition Yposition Zposition Zrotation Xrotation Yrotation
          JOINT RightArm
          {
            OFFSET -3.1366 1.37405 -0.404651
            CHANNELS 6 Xposition Yposition Zposition Zrotation Xrotation Yrotation
            JOINT RightForeArm
            {
              OFFSET -5.2419 -5.8808e-05 -0.000165864
              CHANNELS 6 Xposition Yposition Zposition Zrotation Xrotation Yrotation
              JOINT RightHand
              {
                OFFSET -3.44417 0 -2.00002e-05
                CHANNELS 6 Xposition Yposition Zposition Zrotation Xrotation Yrotation
                JOINT RightFingerBase
                {
                  OFFSET 0 0 0
                  CHANNELS 6 Xposition Yposition Zposition Zrotation Xrotation Yrotation
                  JOINT RightHandIndex1
                  {
                    OFFSET -0.62253 0 0
                    CHANNELS 6 Xposition Yposition Zposition Zrotation Xrotation Yrotation
                    End Site
                    {
                      OFFSET 0 0 0
                    }
                  }
                }
                JOINT RThumb
                {
                  OFFSET 0 0 0
                  CHANNELS 6 Xposition Yposition Zposition Zrotation Xrotation Yrotation
                  End Site
                  {
                    OFFSET 0 0 0
                  }
                }
              }
            }
          }
        }
      }
    }
  }
}
MOTION
Frames:	7
Frame Time:	0.00833333
0.138532 1.63674 0.135011 0.977889 12.0626 8.79723 0 0 0 3.97569e-16 -3.18055e-15 -0 1.36306 -1.79463 -7.58326e-08 -16.1295 2.03258 12.7382 2.44818 -6.7261 -7.42437e-05 -10.3113 25.4671 5.16186 2.5622 -7.0396 -5.86991e-06 9.18553 -7.08542 -6.1715 0.15764 -0.43311 2.32255 4.77083e-15 0 -0 0 0 0 3.97569e-16 -3.18055e-15 -0 -1.30552 -1.79463 -8.06114e-08 29.7863 -59.4342 33.5744 -2.54252 -6.98555 -0.000114837 116.156 52.1702 -152.118 -2.56825 -7.05623 -3.97964e-05 -4.20153 -1.77783 0.552589 -0.16473 -0.45259 2.36315 1.59028e-15 0 1.59028e-15 0 0 0 3.97569e-16 -3.18055e-15 -0 0.0282698 2.03559 3.27936e-08 -4.4456 4.08093 -15.0721 0.05672 2.04885 -0.04275 -3.97569e-16 0 7.95139e-16 0 0 0 1.19271e-15 0 -0 -0.0541701 1.74624 0.17202 7.63648 -12.4457 13.5134 0.10407 1.76136 -0.12397 -4.47266e-16 0 -7.95139e-16 0 0 0 1.19271e-15 0 -0 3.36241 1.20089 -0.311209 -52.9786 -0.966444 -46.1426 4.983 5.70909e-05 3.1249e-05 2.30605 1.24848 -93.5912 3.48356 -2.2261e-06 -2.48586e-05 8.06239 -5.52524 -3.53799 0 0 0 -7.95139e-16 -7.95139e-16 -3.18055e-15 0.71526 -8.88178e-16 0 3.18055e-15 -7.95139e-16 -0 0 0 0 -7.95139e-16 -7.95139e-16 -3.18055e-15 0 0 0 1.19271e-15 0 -0 -3.1366 1.37405 -0.404649 80.1349 16.5153 -54.9017 -5.2419 0.00185088 -0.000159433 -2.06356 1.2284 82.2019 -3.44417 -4.37204e-06 1.36871e-05 -1.51283 12.1107 27.7085 0 0 0 3.18055e-15 -3.18055e-15 -9.54166e-15 -0.62253 0 -8.88178e-16 -0 0 3.18055e-15 0 0 0 3.18055e-15 -3.18055e-15 -9.54166e-15 
0.163377 1.71497 0.250849 0.465297 12.1403 8.79838 0 0 0 7.95139e-16 3.18055e-15 -3.18055e-15 1.36306 -1.79463 -7.58326e-08 -16.048 5.39742 14.8694 2.44818 -6.7261 -7.42437e-05 -9.1378 22.2445 4.1485 2.5622 -7.0396 -5.86991e-06 8.58826 -2.17865 -3.75839 0.15764 -0.43311 2.32255 -1.59028e-15 0 3.18055e-15 0 0 0 7.95139e-16 3.18055e-15 -3.18055e-15 -1.30552 -1.79463 -8.06114e-08 30.8392 -59.7223 34.6682 -2.54252 -6.98555 -0.000114837 111.555 55.0935 -147.208 -2.56825 -7.05623 -3.97964e-05 -2.95327 -1.7466 0.192849 -0.16473 -0.45259 2.36315 -3.18055e-15 -6.36111e-15 -1.59028e-15 0 0 0 7.95139e-16 3.18055e-15 -3.18055e-15 0.0282698 2.03559 3.27936e-08 -3.89385 2.76477 -15.8805 0.05672 2.04885 -0.04275 -2.18663e-15 3.18055e-15 1.59028e-15 0 0 0 -1.98785e-16 4.77083e-15 -7.95139e-16 -0.0541701 1.74624 0.17202 7.11219 -11.6492 13.9076 0.10407 1.76136 -0.12397 4.22417e-16 3.97569e-16 -0 0 0 0 -1.98785e-16 4.77083e-15 -7.95139e-16 3.36241 1.20089 -0.311209 -51.9549 -1.61488 -47.0136 4.983 5.70909e-05 3.1249e-05 2.32672 1.31185 -94.388 3.48356 -2.2261e-06 -2.48586e-05 8.31369 -2.93929 -1.87689 0 0 0 1.59028e-15 3.18055e-15 -3.18055e-15 0.71526 -8.88178e-16 4.44089e-16 -1.59028e-15 2.38542e-15 3.18055e-15 0 0 0 1.59028e-15 3.18055e-15 -3.18055e-15 0 0 0 -1.98785e-16 4.77083e-15 -7.95139e-16 -3.1366 1.37405 -0.404649 79.9593 17.1094 -58.5199 -5.2419 0.00185088 -0.000159433 -2.11084 1.40825 83.8647 -3.44417 -4.37204e-06 1.36871e-05 -0.81161 12.2865 24.4784 0 0 0 1.76556e-31 3.18055e-15 -3.18055e-15 -0.62253 -4.44089e-16 0 -3.53113e-31 6.36111e-15 3.18055e-15 0 0 0 1.76556e-31 3.18055e-15 -3.18055e-15 
0.188143 1.80292 0.360127 0.0147321 12.1991 8.79035 0 0 0 -8.82781e-32 1.59028e-15 3.18055e-15 1.36306 -1.79463 -7.58326e-08 -16.1833 8.58712 16.7993 2.44818 -6.7261 -7.42437e-05 -7.45181 19.1395 3.55159 2.5622 -7.0396 -5.86991e-06 7.65858 2.98113 -1.09078 0.15764 -0.43311 2.32255 -3.18055e-15 -3.18055e-15 -0 0 0 0 -8.82781e-32 1.59028e-15 3.18055e-15 -1.30552 -1.79463 -8.06114e-08 31.5465 -59.9492 35.3955 -2.54252 -6.98555 -0.000114837 105.965 57.8329 -141.03 -2.56825 -7.05623 -3.97964e-05 -1.69429 -1.67769 -0.436956 -0.16473 -0.45259 2.36315 -3.18055e-15 0 -1.59028e-15 0 0 0 -8.82781e-32 1.59028e-15 3.18055e-15 0.0282698 2.03559 3.27936e-08 -3.36728 1.49063 -16.6219 0.05672 2.04885 -0.04275 3.97569e-16 3.18055e-15 -7.95139e-16 0 0 0 7.95139e-16 3.18055e-15 -7.95139e-16 -0.0541701 1.74624 0.17202 6.52353 -10.9387 14.1577 0.10407 1.76136 -0.12397 -2.48481e-17 3.97569e-16 -0 0 0 0 7.95139e-16 3.18055e-15 -7.95139e-16 3.36241 1.20089 -0.311209 -50.7338 -2.01061 -47.4728 4.983 5.70909e-05 3.1249e-05 2.35671 1.35785 -95.7087 3.48356 -2.2261e-06 -2.48586e-05 8.45774 0.379655 -0.349107 0 0 0 2.78299e-15 7.95139e-16 -0 0.71526 8.88178e-16 -4.44089e-16 5.1684e-15 7.95139e-16 -1.27222e-14 0 0 0 2.78299e-15 7.95139e-16 -0 0 0 0 7.95139e-16 3.18055e-15 -7.95139e-16 -3.1366 1.37405 -0.404649 79.6253 17.6121 -61.9675 -5.2419 0.00185088 -0.000159433 -2.1407 1.48431 85.474 -3.44417 -4.37204e-06 1.36871e-05 -0.0712928 12.244 21.0648 0 0 0 -3.18055e-15 -6.36111e-15 -6.36111e-15 -0.62253 1.33227e-15 -4.44089e-16 1.59028e-15 0 3.18055e-15 0 0 0 -3.18055e-15 -6.36111e-15 -6.36111e-15 
0.210286 1.89592 0.455614 -0.311978 12.2473 8.76483 0 0 0 -3.97569e-16 3.18055e-15 -0 1.36306 -1.79463 -7.58326e-08 -16.5601 11.3801 18.2503 2.44818 -6.7261 -7.42437e-05 -5.62413 16.8029 3.26404 2.5622 -7.0396 -5.86991e-06 6.56781 7.97036 1.46219 0.15764 -0.43311 2.32255 -3.18055e-15 6.36111e-15 -0 0 0 0 -3.97569e-16 3.18055e-15 -0 -1.30552 -1.79463 -8.06114e-08 31.9737 -60.0748 35.8774 -2.54252 -6.98555 -0.000114837 99.1526 60.282 -133.371 -2.56825 -7.05623 -3.97964e-05 -0.500445 -1.60855 -1.1578 -0.16473 -0.45259 2.36315 -3.18055e-15 0 -0 0 0 0 -3.97569e-16 3.18055e-15 -0 0.0282698 2.03559 3.27936e-08 -2.91708 0.339205 -17.1994 0.05672 2.04885 -0.04275 -4.41391e-32 -1.59028e-15 -1.59028e-15 0 0 0 7.95139e-16 -1.59028e-15 -0 -0.0541701 1.74624 0.17202 5.96841 -10.323 14.3351 0.10407 1.76136 -0.12397 1.73937e-16 -1.98785e-16 -7.95139e-16 0 0 0 7.95139e-16 -1.59028e-15 -0 3.36241 1.20089 -0.311209 -49.7065 -2.21304 -47.6504 4.983 5.70909e-05 3.1249e-05 2.388 1.31032 -97.3433 3.48356 -2.2261e-06 -2.48586e-05 8.5259 3.91909 0.774516 0 0 0 -1.78906e-15 -7.15625e-15 1.27222e-14 0.71526 0 0 3.37934e-15 1.59028e-15 3.18055e-15 0 0 0 -1.78906e-15 -7.15625e-15 1.27222e-14 0 0 0 7.95139e-16 -1.59028e-15 -0 -3.1366 1.37405 -0.404649 79.4454 17.6218 -64.9377 -5.2419 0.00185088 -0.000159433 -2.1619 1.41311 86.8725 -3.44417 -4.37204e-06 1.36871e-05 0.577255 12.1287 17.8917 0 0 0 1.59028e-15 0 -0 -0.62253 0 0 3.18055e-15 0 -0 0 0 0 1.59028e-15 0 -0 
0.227258 1.98931 0.53008 -0.452981 12.2934 8.71353 0 0 0 -1.32417e-31 -4.77083e-15 -1.59028e-15 1.36306 -1.79463 -7.58326e-08 -17.1359 13.586 18.9103 2.44818 -6.7261 -7.42437e-05 -4.04862 15.881 3.18768 2.5622 -7.0396 -5.86991e-06 5.69377 12.3721 3.51124 0.15764 -0.43311 2.32255 -0 0 3.18055e-15 0 0 0 -1.32417e-31 -4.77083e-15 -1.59028e-15 -1.30552 -1.79463 -8.06114e-08 32.1911 -60.0547 36.2382 -2.54252 -6.98555 -0.000114837 90.917 62.2854 -124.044 -2.56825 -7.05623 -3.97964e-05 0.550007 -1.57681 -1.79072 -0.16473 -0.45259 2.36315 1.59028e-15 -6.36111e-15 -3.18055e-15 0 0 0 -1.32417e-31 -4.77083e-15 -1.59028e-15 0.0282698 2.03559 3.27936e-08 -2.58484 -0.612188 -17.5138 0.05672 2.04885 -0.04275 -1.98785e-16 -1.59028e-15 -1.59028e-15 0 0 0 -3.97569e-16 -1.59028e-15 -1.59028e-15 -0.0541701 1.74624 0.17202 5.54091 -9.81153 14.5102 0.10407 1.76136 -0.12397 3.85145e-16 9.93923e-17 -0 0 0 0 -3.97569e-16 -1.59028e-15 -1.59028e-15 3.36241 1.20089 -0.311209 -49.274 -2.27066 -47.6796 4.983 5.70909e-05 3.1249e-05 2.41644 1.20963 -99.0665 3.48356 -2.2261e-06 -2.48586e-05 8.66702 7.17046 1.21878 0 0 0 -1.44119e-15 -9.93923e-17 3.18055e-15 0.71526 8.88178e-16 -8.88178e-16 -1.3418e-15 1.98785e-15 -0 0 0 0 -1.44119e-15 -9.93923e-17 3.18055e-15 0 0 0 -3.97569e-16 -1.59028e-15 -1.59028e-15 -3.1366 1.37405 -0.404649 79.6616 16.9116 -67.1179 -5.2419 0.00185088 -0.000159433 -2.18093 1.25615 87.9156 -3.44417 -4.37204e-06 1.36871e-05 1.04795 12.1231 15.3747 0 0 0 -1.59028e-15 0 3.18055e-15 -0.62253 4.44089e-16 0 0 3.18055e-15 -0 0 0 0 -1.59028e-15 0 3.18055e-15 
0.237931 2.08534 0.579902 -0.465589 12.3438 8.61345 0 0 0 -8.82781e-32 -3.18055e-15 -1.59028e-15 1.36306 -1.79463 -7.58326e-08 -17.7969 15.1593 18.7461 2.44818 -6.7261 -7.42437e-05 -2.70393 16.3037 4.03665 2.5622 -7.0396 -5.86991e-06 5.60721 16.1455 4.82775 0.15764 -0.43311 2.32255 -6.36111e-15 3.18055e-15 1.59028e-15 0 0 0 -8.82781e-32 -3.18055e-15 -1.59028e-15 -1.30552 -1.79463 -8.06114e-08 32.1868 -59.9063 36.5366 -2.54252 -6.98555 -0.000114837 81.0474 63.3045 -112.772 -2.56825 -7.05623 -3.97964e-05 1.36992 -1.59562 -2.38401 -0.16473 -0.45259 2.36315 3.18055e-15 6.36111e-15 -0 0 0 0 -8.82781e-32 -3.18055e-15 -1.59028e-15 0.0282698 2.03559 3.27936e-08 -2.37571 -1.38429 -17.6311 0.05672 2.04885 -0.04275 5.96354e-16 0 -0 0 0 0 1.98785e-16 1.59028e-15 1.59028e-15 -0.0541701 1.74624 0.17202 5.26649 -9.39608 14.6876 0.10407 1.76136 -0.12397 3.04389e-16 9.93923e-17 -7.95139e-16 0 0 0 1.98785e-16 1.59028e-15 1.59028e-15 3.36241 1.20089 -0.311209 -48.8834 -1.85322 -47.5117 4.983 5.70909e-05 3.1249e-05 2.45277 1.16493 -101.037 3.48356 -2.2261e-06 -2.48586e-05 9.16432 10.275 1.12656 0 0 0 7.35503e-15 -7.95139e-16 -3.18055e-15 0.71526 0 0 6.55989e-15 2.38542e-15 -0 0 0 0 7.35503e-15 -7.95139e-16 -3.18055e-15 0 0 0 1.98785e-16 1.59028e-15 1.59028e-15 -3.1366 1.37405 -0.404649 79.7171 15.5795 -68.68 -5.2419 0.00185088 -0.000159433 -2.19705 1.17938 88.6051 -3.44417 -4.37204e-06 1.36871e-05 1.33564 12.4283 13.5828 0 0 0 -1.59028e-15 6.36111e-15 -0 -0.62253 0 0 0 9.54166e-15 -0 0 0 0 -1.59028e-15 6.36111e-15 -0 
0.243814 2.18534 0.609501 -0.453541 12.3931 8.46219 0 0 0 3.97569e-16 0 -0 1.36306 -1.79463 -7.58326e-08 -18.4108 16.2263 18.0643 2.44818 -6.7261 -7.42437e-05 -1.55856 17.6149 5.99825 2.5622 -7.0396 -5.86991e-06 6.17173 19.4925 5.65774 0.15764 -0.43311 2.32255 -3.18055e-15 -3.18055e-15 -0 0 0 0 3.97569e-16 0 -0 -1.30552 -1.79463 -8.06114e-08 31.8774 -59.6134 36.6498 -2.54252 -6.98555 -0.000114837 70.4134 63.0372 -100.508 -2.56825 -7.05623 -3.97964e-05 2.01697 -1.73063 -3.00128 -0.16473 -0.45259 2.36315 -1.59028e-15 -6.36111e-15 -1.59028e-15 0 0 0 3.97569e-16 0 -0 0.0282698 2.03559 3.27936e-08 -2.25396 -2.00913 -17.6951 0.05672 2.04885 -0.04275 7.95139e-16 3.18055e-15 1.59028e-15 0 0 0 -1.98785e-16 0 1.59028e-15 -0.0541701 1.74624 0.17202 5.0979 -9.07456 14.8337 0.10407 1.76136 -0.12397 3.10601e-17 -4.96962e-17 -7.95139e-16 0 0 0 -1.98785e-16 0 1.59028e-15 3.36241 1.20089 -0.311209 -47.9692 -0.765125 -46.9921 4.983 5.70909e-05 3.1249e-05 2.49841 1.16294 -103.298 3.48356 -2.2261e-06 -2.48586e-05 10.0107 13.4113 0.842334 0 0 0 -2.20695e-31 3.97569e-15 3.18055e-15 0.71526 0 0 0 0 -0 0 0 0 -2.20695e-31 3.97569e-15 3.18055e-15 0 0 0 -1.98785e-16 0 1.59028e-15 -3.1366 1.37405 -0.404649 79.1208 14.0208 -69.8554 -5.2419 0.00185088 -0.000159433 -2.20661 1.18209 89.0525 -3.44417 -4.37204e-06 1.36871e-05 1.49468 12.9903 12.308 0 0 0 3.97569e-15 3.18055e-15 9.54166e-15 -0.62253 8.88178e-16 0 7.95139e-16 3.18055e-15 3.18055e-15 0 0 0 3.97569e-15 3.18055e-15 9.54166e-15 
